<svg xmlns="http://www.w3.org/2000/svg" xmlns:xlink="http://www.w3.org/1999/xlink" width="25" height="24" viewBox="0 0 25 24"><defs><style>.a{clip-path:url(#a);}.b{fill:#fff;}.c{fill:#7b7b7b;}.d{fill:rgba(123,123,123,0.25);}.e{stroke:rgba(255,255,255,0);font-size:6px;font-family:OpenSans-Bold, Open Sans;font-weight:700;}</style><clipPath id="a"><rect width="24" height="24"/></clipPath></defs><g transform="translate(-177.5 -238)"><g transform="translate(25 88)"><g class="a" transform="translate(153 150)"><rect class="b" width="24" height="24"/><g transform="translate(-0.263 -0.149)"><path class="b" d="M23.763,23.649h-23V4.356L4.47.649H23.763Z"/><path class="c" d="M4.677,1.149,1.263,4.563V23.149h22v-22H4.677m-.414-1h20v24h-24v-20Z"/><g transform="translate(9.46 1.525) rotate(135)"><path class="b" d="M8.246,4.461,2.932,4.382l-.615-.615L5.494.7,8.75,3.957Z"/><path class="c" d="M5.488,1.4,3.031,3.773l.112.112,4.9.073h0L5.488,1.4M5.5,0,9.457,3.957,8.45,4.964,2.722,4.879,1.6,3.76Z"/></g></g><path class="d" d="M0,8.431H3.513V0H5.621V8.431H9.134L4.567,16.16Z" transform="translate(7 4)"/></g></g><text class="e" transform="translate(178.5 246)"><tspan x="6.041" y="6">ALL</tspan></text></g></svg>