<?xml version="1.0" encoding="UTF-8"?>
<svg width="512px" height="512px" viewBox="0 0 512 512" version="1.1" xmlns="http://www.w3.org/2000/svg" xmlns:xlink="http://www.w3.org/1999/xlink">
    <title>icon_airplane</title>
    <defs></defs>
    <g id="Page-1" stroke="none" stroke-width="1" fill="none" fill-rule="evenodd">
        <g id="icon_airplane" transform="translate(-84.000000, 0.000000)" fill="#7B7B7B" fill-rule="nonzero">
            <g id="send" transform="translate(298.000000, 288.000000) scale(-1, 1) translate(-298.000000, -288.000000) ">
                <path d="M512,255.117 C512,251.586 510.235,249.82 506.703,248.055 L12.359,0.883 L11.476,0.883 L10.593,0 C9.71,0 8.828,0 8.828,0 C7.945,0 7.945,0 7.062,0 C6.179,0 6.179,0 5.297,0.883 L4.414,0.883 C4.414,0.883 4.414,0.883 3.531,0.883 L2.648,1.766 L1.766,2.648 L1.766,3.531 C1.766,4.414 0.883,4.414 0.883,5.297 C0.883,6.18 0.883,6.18 0.883,7.063 C0,7.945 0,8.828 0,8.828 C0,9.71 0,9.71 0,10.593 L0,11.476 L141.241,505.821 C142.124,508.469 144.772,511.118 147.42,512 C148.303,512 149.186,512 150.068,512 C152.716,512 154.482,511.117 156.247,509.352 L254.233,411.366 L318.674,508.469 C319.557,509.352 319.557,510.235 320.44,510.235 C320.44,510.235 320.44,510.235 321.323,510.235 C322.206,510.235 322.206,511.118 323.089,511.118 L323.972,511.118 C324.855,511.118 325.738,511.118 326.62,511.118 C326.62,511.118 326.62,511.118 327.503,511.118 C328.386,511.118 329.269,511.118 329.269,511.118 C329.269,511.118 330.152,511.118 330.152,510.235 C330.152,510.235 331.035,510.235 331.035,509.352 C331.918,508.469 331.918,508.469 332.801,507.586 C332.801,507.586 332.801,506.703 333.684,506.703 C334.567,505.82 334.567,504.937 334.567,504.055 L368.995,331.917 L506.705,263.062 C509.352,261.297 512,258.648 512,255.117 Z M154.483,486.4 L29.131,48.552 L278.952,361.049 L154.483,486.4 Z M268.359,399.007 L286.897,379.586 L306.318,456.386 L268.359,399.007 Z M325.738,462.566 L300.138,360.166 C300.138,359.283 299.255,358.4 299.255,357.518 L299.255,356.635 L82.979,87.393 L352.22,329.269 L325.738,462.566 Z M363.697,316.028 L63.559,45.903 L483.752,256 L363.697,316.028 Z" id="Shape"></path>
            </g>
        </g>
    </g>
</svg>