<svg xmlns="http://www.w3.org/2000/svg" xmlns:xlink="http://www.w3.org/1999/xlink" width="24" height="24" viewBox="0 0 24 24"><defs><clipPath id="b"><rect width="24" height="24"/></clipPath></defs><g id="a" clip-path="url(#b)"><rect width="24" height="24" fill="#fff"/><g transform="translate(-0.263 -0.149)"><g fill="#fff"><path d="M 23.76311874389648 23.64897537231445 L 0.7631187438964844 23.64897537231445 L 0.7631187438964844 4.356075286865234 L 4.470218658447266 0.6489753723144531 L 23.76311874389648 0.6489753723144531 L 23.76311874389648 23.64897537231445 Z" stroke="none"/><path d="M 4.677339553833008 1.148975372314453 L 1.263118743896484 4.563196182250977 L 1.263118743896484 23.14897537231445 L 23.26311874389648 23.14897537231445 L 23.26311874389648 1.148975372314453 L 4.677339553833008 1.148975372314453 M 4.263118743896484 0.1489753723144531 L 24.26311874389648 0.1489753723144531 L 24.26311874389648 24.14897537231445 L 0.2631187438964844 24.14897537231445 L 0.2631187438964844 4.148975372314453 L 4.263118743896484 0.1489753723144531 Z" stroke="none" fill="#7b7b7b"/></g><g transform="translate(9.46 1.525) rotate(135)" fill="#fff"><path d="M 8.245704650878906 4.460865497589111 L 2.932334899902344 4.381659984588623 L 2.317034959793091 3.766359806060791 L 5.493764877319336 0.7008605003356934 L 8.749732971191406 3.956837177276611 L 8.245704650878906 4.460865497589111 Z" stroke="none"/><path d="M 5.48751163482666 1.401727914810181 L 3.030502319335938 3.772706985473633 L 3.142527103424072 3.884731769561768 L 8.04168701171875 3.957763195037842 L 8.042613983154297 3.956836700439453 L 5.48751163482666 1.401727914810181 M 5.500002861022949 -2.384185791015625e-06 L 9.456832885742188 3.95683765411377 L 8.449712753295898 4.963957786560059 L 2.722152709960938 4.878577709197998 L 1.603572845458984 3.759997844696045 L 5.500002861022949 -2.384185791015625e-06 Z" stroke="none" fill="#7b7b7b"/></g></g><path d="M0,8.431H3.513V0H5.621V8.431H9.134L4.567,16.16Z" transform="translate(7 4)" fill="#7b7b7b"/></g></svg>